{"title":"Delivery.Man.2013.BRRip.XviD-TODE","uid":9710039,"size":1428795916,"categoryP":"video","categoryS":"movies","magnet":"?xt=urn:btih:bf1160b0871352299723693e8e10717d7faab174&amp;dn=Delivery.Man.2013.BRRip.XviD-TODE&amp;tr=udp%3A%2F%2Ftracker.openbittorrent.com%3A80&amp;tr=udp%3A%2F%2Fopen.demonii.com%3A1337&amp;tr=udp%3A%2F%2Ftracker.coppersurfer.tk%3A6969&amp;tr=udp%3A%2F%2Fexodus.desync.com%3A6969","seeders":1,"leechers":0,"uploader":"xxxlavalxxx","files":-1,"time":1394101419,"description":" &lt;a href=&quot;\nhttp://www.imdb.com/title/tt2387559/&quot; rel=&quot;nofollow&quot; target=&quot;_NEW&quot;&gt;\nhttp://www.imdb.com/title/tt2387559/&lt;/a&gt;\n\n\nAn affable underachiever finds out he's fathered 533 children through anonymous donations to a fertility clinic 20 years ago. Now he must decide whether or not to come forward when 142 of them file a lawsuit to reveal his identity.\n\nDirector: Ken Scott\nWriters: Ken Scott (screenplay), Ken Scott (original screenplay &quot;Starbuck&quot;)\nStars: Vince Vaughn, Chris Pratt, Cobie Smulders\nGenres: Comedy | Drama\nCountry: USA\nLanguage: English\n\n\nThanks: SPARKS\n\n\nFormat                                   : AVI\nFormat/Info                              : Audio Video Interleave\nFile size                                : 1.33 GiB\nDuration                                 : 1h 44mn\nOverall bit rate                         : 1 818 Kbps\nWriting library                          : VirtualDub build 32842/release\n\nVideo\nID                                       : 0\nFormat                                   : MPEG-4 Visual\nFormat profile                           : Advanced Simple@L5\nFormat settings, BVOP                    : 2\nFormat settings, QPel                    : No\nFormat settings, GMC                     : No warppoints\nFormat settings, Matrix                  : Default (H.263)\nMuxing mode                              : Packed bitstream\nCodec ID                                 : XVID\nCodec ID/Hint                            : XviD\nDuration                                 : 1h 44mn\nBit rate                                 : 1 616 Kbps\nWidth                                    : 720 pixels\nHeight                                   : 304 pixels\nDisplay aspect ratio                     : 2.35:1\nFrame rate                               : 23.976 fps\nColor space                              : YUV\nChroma subsampling                       : 4:2:0\nBit depth                                : 8 bits\nScan type                                : Progressive\nCompression mode                         : Lossy\nBits/(Pixel*Frame)                       : 0.308\nStream size                              : 1.18 GiB (89%)\nWriting library                          : XviD 64\n\nAudio\nID                                       : 1\nFormat                                   : MPEG Audio\nFormat version                           : Version 1\nFormat profile                           : Layer 3\nMode                                     : Joint stereo\nCodec ID                                 : 55\nCodec ID/Hint                            : MP3\nDuration                                 : 1h 44mn\nBit rate mode                            : Constant\nBit rate                                 : 192 Kbps\nChannel(s)                               : 2 channels\nSampling rate                            : 48.0 KHz\nCompression mode                         : Lossy\nStream size                              : 144 MiB (11%)\nAlignment                                : Split accross interleaves\nInterleave, duration                     : 42 ms (1.00 video frame)\nInterleave, preload duration             : 500 ms\n\n\n\nscreens\n &lt;a href=&quot;\nhttp://i.imgur.com/B0mpU3G.jpg&quot; rel=&quot;nofollow&quot; target=&quot;_NEW&quot;&gt;\nhttp://i.imgur.com/B0mpU3G.jpg&lt;/a&gt; &lt;a href=&quot;\nhttp://i.imgur.com/uJ0LDuc.jpg&quot; rel=&quot;nofollow&quot; target=&quot;_NEW&quot;&gt;\nhttp://i.imgur.com/uJ0LDuc.jpg&lt;/a&gt; &lt;a href=&quot;\nhttp://i.imgur.com/lKijFjs.jpg&quot; rel=&quot;nofollow&quot; target=&quot;_NEW&quot;&gt;\nhttp://i.imgur.com/lKijFjs.jpg&lt;/a&gt; &lt;a href=&quot;\nhttp://i.imgur.com/LVI0909.jpg&quot; rel=&quot;nofollow&quot; target=&quot;_NEW&quot;&gt;\nhttp://i.imgur.com/LVI0909.jpg&lt;/a&gt; &lt;a href=&quot;\nhttp://i.imgur.com/yJGRbwv.jpg&quot; rel=&quot;nofollow&quot; target=&quot;_NEW&quot;&gt;\nhttp://i.imgur.com/yJGRbwv.jpg&lt;/a&gt; &lt;a href=&quot;\nhttp://i.imgur.com/XNYUWCG.jpg&quot; rel=&quot;nofollow&quot; target=&quot;_NEW&quot;&gt;\nhttp://i.imgur.com/XNYUWCG.jpg&lt;/a&gt; &lt;a href=&quot;\nhttp://i.imgur.com/aPrVO1o.jpg&quot; rel=&quot;nofollow&quot; target=&quot;_NEW&quot;&gt;\nhttp://i.imgur.com/aPrVO1o.jpg&lt;/a&gt; &lt;a href=&quot;\nhttp://i.imgur.com/bpDNTVD.jpg&quot; rel=&quot;nofollow&quot; target=&quot;_NEW&quot;&gt;\nhttp://i.imgur.com/bpDNTVD.jpg&lt;/a&gt;","torrent":{"xt":"urn:btih:bf1160b0871352299723693e8e10717d7faab174","amp;dn":"Delivery.Man.2013.BRRip.XviD-TODE","amp;tr":["udp%3A%2F%2Ftracker.openbittorrent.com%3A80","udp%3A%2F%2Fopen.demonii.com%3A1337","udp%3A%2F%2Ftracker.coppersurfer.tk%3A6969","udp%3A%2F%2Fexodus.desync.com%3A6969"],"infoHash":"bf1160b0871352299723693e8e10717d7faab174","infoHashBuffer":{"type":"Buffer","data":[191,17,96,176,135,19,82,41,151,35,105,62,142,16,113,125,127,170,177,116]},"announce":[],"urlList":[]}}